<?xml version="1.0" encoding="UTF-8" standalone="no"?>
<!DOCTYPE svg PUBLIC "-//W3C//DTD SVG 1.1//EN" "http://www.w3.org/Graphics/SVG/1.1/DTD/svg11.dtd">
<svg width="100%" height="100%" viewBox="0 0 1136 908" version="1.1" xmlns="http://www.w3.org/2000/svg" xmlns:xlink="http://www.w3.org/1999/xlink" xml:space="preserve" xmlns:serif="http://www.serif.com/" style="fill-rule:evenodd;clip-rule:evenodd;stroke-linejoin:round;stroke-miterlimit:2;">
    <g transform="matrix(1.12883,0,0,1.12883,568,454)">
        <g transform="matrix(1,0,0,1,-416.611,-316.555)">
            <clipPath id="_clip1">
                <rect x="0" y="0" width="833.222" height="633.11"/>
            </clipPath>
            <g clip-path="url(#_clip1)">
                <g transform="matrix(1,0,0,1,-183.389,-133.445)">
                    <path d="M954.314,708.907C927.014,729.697 893.754,750.757 861.054,760.687C851.627,763.635 841.9,765.517 832.054,766.297C822.849,767.037 813.584,766.318 804.604,764.167C781.004,758.297 759.114,748.017 737.934,736.007C731.014,732.077 724.174,727.967 717.374,723.767C706.274,716.907 695.284,709.807 684.264,702.877C682.614,701.827 680.974,700.797 679.324,699.777L679.314,699.777C676.654,698.107 673.987,696.461 671.314,694.837C670.844,694.547 670.374,694.267 669.894,693.977C664.844,690.917 659.707,687.927 654.484,685.007C653.844,684.657 653.204,684.297 652.564,683.947C642.458,678.342 632.071,673.258 621.444,668.717C614.464,665.777 607.394,663.127 600.254,660.867L600.244,660.867C597.514,660.007 594.774,659.197 592.024,658.457C583.778,656.195 575.374,654.55 566.884,653.537C555.184,652.121 543.35,652.215 531.674,653.817C530.884,653.927 530.104,654.037 529.314,654.167C497.714,659.227 468.874,676.287 437.134,680.307C436.104,680.437 435.084,680.557 434.054,680.647C433.614,680.687 433.174,680.737 432.734,680.767C423.51,681.557 414.228,681.329 405.054,680.087C379.424,676.707 354.464,666.217 331.994,652.997C279.464,622.087 236.864,574.577 210.964,519.557C206.516,510.128 202.567,500.471 199.134,490.627C189.534,463.33 184.247,434.703 183.464,405.777C181.034,305.417 238.064,204.727 327.604,159.337C417.154,113.947 534.954,128.957 607.174,198.687C650.984,240.987 676.334,298.307 709.304,349.517C742.274,400.717 789.134,449.627 849.574,457.087C880.364,460.887 912.584,453.537 942.094,463.097C958.434,468.397 972.374,478.537 983.604,491.457C991.154,500.225 997.472,509.981 1002.38,520.457C1005.98,528.031 1008.9,535.908 1011.11,543.997C1011.52,545.487 1011.9,546.977 1012.27,548.467C1026.97,608.507 1003.48,671.447 954.314,708.907Z" style="fill:rgb(242,242,242);fill-rule:nonzero;"/>
                </g>
                <path d="M304.665,492.272C304.665,478.198 293.239,466.772 279.165,466.772L185.165,466.772C171.091,466.772 159.665,478.198 159.665,492.272L159.665,492.272C159.665,506.346 171.091,517.772 185.165,517.772L279.165,517.772C293.239,517.772 304.665,506.346 304.665,492.272L304.665,492.272Z" style="fill:rgb(63,61,86);"/>
                <g transform="matrix(1,0,0,1,-183.389,-133.445)">
                    <path d="M434.054,638.217L434.054,680.647C424.398,681.581 414.666,681.394 405.054,680.087L405.054,638.217L434.054,638.217Z" style="fill:rgb(63,61,86);fill-rule:nonzero;"/>
                </g>
                <g transform="matrix(1,0,0,1,-183.389,-133.445)">
                    <path d="M531.674,653.817C530.884,653.927 530.104,654.037 529.314,654.167C497.714,659.227 468.874,676.287 437.134,680.307C436.104,680.437 435.084,680.557 434.054,680.647C433.614,680.687 433.174,680.737 432.734,680.767C424.984,673.177 417.234,665.097 409.954,656.727C406.004,652.197 402.184,647.577 398.594,642.897C389.274,630.817 381.374,618.397 376.154,606.197C376.684,600.347 373.044,586.817 371.304,576.457L371.294,576.447C370.554,572.097 370.154,568.317 370.524,565.887C372.644,551.867 384.094,553.477 387.614,539.737C390.789,537.102 394.17,534.724 397.724,532.627C398.314,532.277 398.914,531.927 399.534,531.577L437.734,505.177L452.334,519.497L474.554,541.297L498.634,564.907L478.194,585.557C478.194,585.557 495.274,605.247 515.244,631.497C520.604,638.547 526.174,646.077 531.674,653.817Z" style="fill:rgb(47,46,65);fill-rule:nonzero;"/>
                </g>
                <g transform="matrix(1,0,0,1,-183.389,-133.445)">
                    <path d="M861.054,638.217L861.054,760.687C851.627,763.635 841.9,765.517 832.054,766.297L832.054,638.217L861.054,638.217Z" style="fill:rgb(63,61,86);fill-rule:nonzero;"/>
                </g>
                <path d="M740.665,520.272C740.665,506.198 729.239,494.772 715.165,494.772L621.165,494.772C607.091,494.772 595.665,506.198 595.665,520.272L595.665,520.272C595.665,534.346 607.091,545.772 621.165,545.772L715.165,545.772C729.239,545.772 740.665,534.346 740.665,520.272L740.665,520.272Z" style="fill:rgb(63,61,86);"/>
                <g transform="matrix(1,0,0,1,-183.389,-133.445)">
                    <path d="M669.894,693.977C664.844,690.917 659.707,687.927 654.484,685.007C653.844,684.657 653.204,684.297 652.564,683.947L656.004,682.477L665.284,678.487L665.374,678.447L665.474,678.787L669.894,693.977Z" style="fill:rgb(255,182,182);fill-rule:nonzero;"/>
                </g>
                <g transform="matrix(1,0,0,1,-183.389,-133.445)">
                    <path d="M684.264,702.877C682.614,701.827 680.974,700.797 679.324,699.777L679.314,699.777C676.654,698.107 673.987,696.46 671.314,694.837C670.844,694.547 670.374,694.267 669.894,693.977C664.844,690.917 659.707,687.927 654.484,685.007C653.844,684.657 653.204,684.297 652.564,683.947C642.458,678.341 632.071,673.258 621.444,668.717C614.464,665.777 607.394,663.127 600.254,660.867L600.244,660.867L594.634,651.477L569.384,609.187L563.834,599.897C563.834,599.897 544.904,605.497 518.114,610.867C508.364,612.827 497.584,614.747 486.274,616.367C474.184,618.087 461.504,619.457 448.904,620.117C442.894,620.437 436.904,620.597 431.004,620.547C415.754,620.447 401.104,619.017 388.274,615.617C383.994,611.597 371.094,606.127 361.854,601.117L361.844,601.117C357.964,599.017 354.744,597.007 353.054,595.217C343.314,584.917 351.634,576.887 342.974,565.647C342.857,561.524 343.068,557.397 343.604,553.307C343.694,552.627 343.784,551.937 343.894,551.237L346.624,504.877L366.904,502.197L397.764,498.117L431.194,493.697L434.874,522.517C434.874,522.517 460.904,521.197 493.884,521.637C546.854,522.357 617.734,527.637 627.334,550.297C628.234,552.427 629.134,554.577 630.034,556.727C632.174,561.867 634.294,567.034 636.394,572.227C644.004,591.027 651.264,610.007 657.894,627.947C662.014,639.107 665.894,649.867 669.464,659.937C672.334,668.037 674.994,675.697 677.424,682.747C679.644,689.187 681.654,695.117 683.444,700.437C683.724,701.267 683.994,702.087 684.264,702.877Z" style="fill:rgb(47,46,65);fill-rule:nonzero;"/>
                </g>
                <g transform="matrix(1,0,0,1,-183.389,-133.445)">
                    <path d="M497.708,421.99L433.653,367.588L475.328,325.411L504.403,373.035L612.177,394.401C615.799,391.676 620.211,390.201 624.745,390.201C636.21,390.201 645.645,399.635 645.645,411.101C645.645,422.566 636.21,432.001 624.745,432.001C618.821,432.001 613.169,429.483 609.207,425.08L497.708,421.99Z" style="fill:rgb(160,97,106);fill-rule:nonzero;"/>
                </g>
                <g transform="matrix(1,0,0,1,-183.389,-133.445)">
                    <path d="M377.042,296.092C369.64,320.174 440.142,377.612 440.142,377.612C440.925,371.83 480.898,421.685 483.617,417.17C491.346,404.338 499.851,372.618 508.774,368.564C513.877,366.246 484.603,334.021 484.603,334.021C484.603,334.021 469.671,314.265 449.955,289.226C438.904,274.644 421.102,266.719 402.871,268.265C384.639,269.812 384.445,272.009 377.042,296.092Z" style="fill:rgb(63,61,86);fill-rule:nonzero;"/>
                </g>
                <circle cx="224.825" cy="66.009" r="43.324" style="fill:rgb(160,97,106);"/>
                <g transform="matrix(1,0,0,1,-183.389,-133.445)">
                    <path d="M429.876,271.412C439.21,276.961 444.793,287.156 447.998,297.531C453.932,316.738 457.504,336.597 458.635,356.668L462.02,416.757L503.946,544.705C467.61,575.451 331.027,551.692 331.027,551.692C331.027,551.692 326.835,550.295 331.027,546.102C335.22,541.909 339.301,545.624 335.109,541.431C330.916,537.239 333.807,541.909 335.204,537.717C336.602,533.524 335.204,536.319 333.807,534.922C332.409,533.524 344.626,520.946 344.626,520.946L333.445,447.503L319.47,299.363C336.241,278.4 369.968,266.042 369.968,266.042L378.683,250.356L422.257,253.841L429.876,271.412Z" style="fill:rgb(63,61,86);fill-rule:nonzero;"/>
                </g>
                <g transform="matrix(1,0,0,1,-183.389,-133.445)">
                    <path d="M443.928,176.437C447.295,178.948 449.79,182.453 451.061,186.456C451.549,179.913 451.58,173.344 451.154,166.797C450.643,162.196 447.404,161.161 443.653,159.962C440.266,158.879 436.435,157.655 435.405,153.188C421.786,139.94 398.079,140.608 381.854,145.229C372.927,147.772 367.79,151.039 367.33,152.953L367.235,153.347L366.872,153.529C359.991,156.97 358.651,167.835 358.74,176.344C358.907,192.375 364.443,210.583 367.561,212.062C367.726,212.14 367.768,212.11 367.839,212.05C372.534,208.298 378.263,212.335 380.78,214.53C383.826,194.094 400.556,178.246 421.126,176.311C424.402,175.994 427.651,175.449 430.851,174.68C432.474,174.26 434.142,174.041 435.818,174.028C438.704,173.985 441.534,174.825 443.928,176.437Z" style="fill:rgb(47,46,65);fill-rule:nonzero;"/>
                </g>
                <g transform="matrix(1,0,0,1,-183.389,-133.445)">
                    <path d="M389.338,487.262L376.085,480.475C375.129,479.794 374.561,478.69 374.561,477.517C374.561,475.524 376.2,473.885 378.193,473.885C378.59,473.885 378.985,473.95 379.361,474.078L392.614,480.865C393.57,481.546 394.139,482.65 394.139,483.823C394.139,485.816 392.499,487.455 390.506,487.455C390.109,487.455 389.714,487.39 389.338,487.262L389.338,487.262Z" style="fill:rgb(226,30,66);fill-rule:nonzero;"/>
                </g>
                <g transform="matrix(1,0,0,1,-183.389,-133.445)">
                    <path d="M344.735,469.078L322.934,387.916L381.193,376.887L378.06,432.597L454.607,511.415C454.891,511.403 455.176,511.397 455.46,511.397C466.926,511.397 476.36,520.832 476.36,532.298C476.36,543.763 466.926,553.198 455.46,553.198C445.001,553.198 436.071,545.346 434.732,534.973L344.735,469.078Z" style="fill:rgb(160,97,106);fill-rule:nonzero;"/>
                </g>
                <g transform="matrix(1,0,0,1,-183.389,-133.445)">
                    <path d="M316.972,296.916C297.197,312.528 322.579,399.851 322.579,399.851C326.508,395.539 331.075,459.276 335.878,457.106C349.529,450.938 374.551,429.668 384.197,431.402C389.713,432.393 383.934,389.242 383.934,389.242C383.934,389.242 382.871,364.501 380.873,332.694C380.065,314.415 369.918,297.779 354.037,288.693C338.156,279.607 336.747,281.305 316.972,296.916Z" style="fill:rgb(63,61,86);fill-rule:nonzero;"/>
                </g>
                <g transform="matrix(1,0,0,1,-183.389,-133.445)">
                    <path d="M1002.38,520.457L210.964,519.557C206.516,510.128 202.567,500.471 199.134,490.627L983.604,491.457C991.154,500.225 997.472,509.981 1002.38,520.457Z" style="fill:rgb(63,61,86);fill-rule:nonzero;"/>
                </g>
                <g transform="matrix(1,0,0,1,-183.389,-133.445)">
                    <path d="M750.314,730.277C746.224,732.257 742.097,734.167 737.934,736.007C731.014,732.077 724.174,727.967 717.374,723.767L742.594,712.687L750.314,730.277Z" style="fill:rgb(255,182,182);fill-rule:nonzero;"/>
                </g>
                <g transform="matrix(1,0,0,1,-183.389,-133.445)">
                    <path d="M934.194,592.477C930.094,597.977 925.864,603.367 921.504,608.647C917.484,613.517 913.357,618.294 909.124,622.977C907.374,624.917 905.604,626.847 903.794,628.757C900.464,632.327 897.06,635.837 893.584,639.287C887.324,641.257 874.644,644.727 861.054,647.967C851.164,650.317 840.794,652.547 832.054,653.967C827.161,654.845 822.212,655.373 817.244,655.547C811.344,655.597 805.354,655.437 799.344,655.117C792.564,654.757 785.774,654.197 779.064,653.477C761.614,651.647 744.714,648.797 730.134,645.867C724.794,644.807 719.774,643.727 715.154,642.677C706.404,640.707 699.084,638.867 693.784,637.467C687.814,635.907 684.414,634.897 684.414,634.897L669.464,659.937L661.704,672.927L656.004,682.477L654.484,685.007C653.844,684.657 653.204,684.297 652.564,683.947C642.458,678.341 632.071,673.258 621.444,668.717C614.464,665.777 607.394,663.127 600.254,660.867L600.244,660.867C597.514,660.007 594.774,659.197 592.024,658.457C592.884,656.147 593.754,653.821 594.634,651.477C596.274,647.107 597.947,642.697 599.654,638.247C603.344,628.607 607.164,618.827 611.094,609.097C614.314,601.107 617.594,593.147 620.914,585.297C622.444,581.677 625.554,578.497 629.904,575.707C631.983,574.396 634.151,573.233 636.394,572.227C648.844,566.557 667.184,562.867 687.394,560.497C689.064,560.307 690.744,560.117 692.434,559.937C709.164,558.177 726.914,557.267 743.514,556.847C751.824,556.637 759.844,556.557 767.304,556.547C769.714,556.547 772.057,556.554 774.334,556.567L774.344,556.567C780.494,556.597 786.154,556.687 791.134,556.787C792.104,556.807 793.044,556.837 793.964,556.857L793.974,556.857C794.594,556.867 795.204,556.887 795.804,556.897C806.694,557.177 813.374,557.517 813.374,557.517L815.964,537.197L816.494,533.097L816.994,529.197L816.994,529.187L817.054,528.697L817.464,528.687L824.664,528.547L885.184,527.367L918.244,526.717L913.004,549.177L904.354,586.237C905.234,592.097 934.494,587.507 934.194,592.477Z" style="fill:rgb(47,46,65);fill-rule:nonzero;"/>
                </g>
                <g transform="matrix(1,0,0,1,-183.389,-133.445)">
                    <path d="M757.774,726.577C755.304,727.837 752.814,729.077 750.314,730.277C746.224,732.257 742.097,734.167 737.934,736.007C731.014,732.077 724.174,727.967 717.374,723.767C706.274,716.907 695.284,709.807 684.264,702.877C682.614,701.827 680.974,700.797 679.324,699.777L679.314,699.777C674.774,693.037 670.144,686.017 665.474,678.787C665.404,678.687 665.344,678.587 665.284,678.487C664.084,676.647 662.89,674.794 661.704,672.927C654.234,661.227 646.724,649.027 639.434,636.567L657.894,627.947L692.214,611.927L698.134,609.167L715.154,642.677L730.334,672.567L733.714,679.217L757.774,726.577Z" style="fill:rgb(47,46,65);fill-rule:nonzero;"/>
                </g>
                <g transform="matrix(1,0,0,1,-183.389,-133.445)">
                    <path d="M762.946,565.695L850.447,481.311L874.699,412.641L838.926,397.086C820.552,414.687 800.69,469.51 800.69,469.51L740.477,546.115C740.008,546.275 739.54,546.446 739.077,546.65C732.842,549.4 728.799,555.601 728.799,562.416C728.799,571.869 736.577,579.648 746.03,579.648C754.25,579.648 761.382,573.765 762.946,565.695Z" style="fill:rgb(255,184,184);fill-rule:nonzero;"/>
                </g>
                <g transform="matrix(1,0,0,1,-183.389,-133.445)">
                    <path d="M828.86,404.753L874.236,419.158L874.407,419.13C891.295,416.301 905.309,388.717 914.091,366.076C920.053,350.666 912.972,333.049 898.004,326.051C887.07,321.03 874.182,322.656 864.839,330.236L841.538,349.275L828.86,404.753Z" style="fill:rgb(226,30,66);fill-rule:nonzero;"/>
                </g>
                <g transform="matrix(1,0,0,1,-183.389,-133.445)">
                    <path d="M934.012,593.49L934.277,593.138C948.434,574.361 929.071,527.864 926.143,521.121L939.307,517.222L937.013,492.158L935.908,480.982L946.143,471.262L946.177,471.014L953.216,420.921L962.426,387.768C969.484,362.281 962.221,334.877 943.465,316.233L924.638,297.54L902.081,262.234L864.262,261.257L850.662,285.416C824.668,290.721 806.005,314.071 806.559,340.595L807.84,404.91L794.269,484.598L793.889,499.072L780.569,513.128L783.032,527.337L773.069,531.306L768.193,551.497C766.331,553.827 754.037,569.367 753.925,573.7C753.908,574.35 754.372,574.991 755.385,575.715C763.343,581.409 807.822,593.746 827.841,586.329C849.164,578.435 932.735,593.261 933.577,593.412L934.012,593.49Z" style="fill:rgb(226,30,66);fill-rule:nonzero;"/>
                </g>
                <circle cx="696.48" cy="66.885" r="50.104" style="fill:rgb(255,184,184);"/>
                <g transform="matrix(1,0,0,1,-183.389,-133.445)">
                    <path d="M873.756,251.104C881.515,251.225 889.27,250.683 896.937,249.484C904.536,247.939 921.536,235.481 926.275,227.985C929.796,222.415 932.048,213.717 933.317,207.402C936.772,190.509 932.897,172.92 922.663,159.043C920.718,156.172 918.031,153.879 914.89,152.409C914.612,152.3 914.325,152.204 914.036,152.121C909.458,150.917 905.344,148.371 902.224,144.812C901.619,144.092 900.962,143.417 900.26,142.791C896.733,139.815 892.551,137.715 888.057,136.664C880.804,134.723 870.305,136.65 856.856,142.398C850.098,145.285 842.708,144.24 837.023,143.007C836.375,142.882 835.707,143.111 835.272,143.607C832.854,145.877 829.664,147.149 826.347,147.165C824.315,147.254 822.183,150.067 819.606,153.736C819.022,154.569 818.339,155.541 817.847,156.132L817.781,154.997L816.632,156.264C813.973,159.195 812.499,163.013 812.499,166.971C812.499,173.977 817.119,180.199 823.826,182.225C825.87,182.769 827.964,183.102 830.076,183.221C831.355,183.336 832.678,183.455 833.946,183.675C842.215,185.368 849.008,191.3 851.799,199.265C852.692,201.756 855.067,203.427 857.713,203.427C858.988,203.427 860.233,203.039 861.282,202.315C863.961,200.23 867.499,199.585 870.741,200.593C872.122,201.361 873.198,202.581 873.787,204.048C874.503,205.682 875.689,207.066 877.195,208.024C882.345,210.679 882.699,222.441 880.85,232.246C879.067,241.697 875.543,248.534 872.28,248.872C869.768,249.132 869.481,249.31 869.299,249.755L869.136,250.152L869.419,250.524C870.806,251.027 872.286,251.225 873.756,251.104Z" style="fill:rgb(47,46,65);fill-rule:nonzero;"/>
                </g>
                <g transform="matrix(1,0,0,1,-183.389,-133.445)">
                    <path d="M841.302,389.605L821.984,351.09C793.943,353.005 738.289,385.427 738.289,385.427L632.99,407.752C630.812,406.915 628.498,406.486 626.165,406.486C615.729,406.486 607.141,415.073 607.141,425.509C607.141,435.945 615.729,444.533 626.165,444.533C630.54,444.533 634.784,443.023 638.177,440.261L772.123,430.659L841.302,389.605Z" style="fill:rgb(255,184,184);fill-rule:nonzero;"/>
                </g>
                <g transform="matrix(1,0,0,1,-183.389,-133.445)">
                    <path d="M833.511,395.929L883.964,358.435L892.852,326.408C896.358,313.589 892.27,299.835 882.33,291.013C868.598,278.99 847.635,279.666 834.706,292.55C815.72,311.501 794.065,337.94 798.716,356.273L798.763,356.459L833.511,395.929Z" style="fill:rgb(226,30,66);fill-rule:nonzero;"/>
                </g>
                <rect x="452.665" y="362.772" width="135" height="18" style="fill:white;"/>
                <rect x="107.665" y="362.772" width="135" height="18" style="fill:white;"/>
                <g transform="matrix(1,0,0,1,-183.389,-133.445)">
                    <path d="M441.818,409.655L441.818,495.359C441.819,497.618 443.678,499.477 445.937,499.478L572.941,499.478C575.2,499.477 577.058,497.618 577.06,495.359L577.06,409.655C577.055,407.399 575.198,405.544 572.941,405.541L445.937,405.541C443.68,405.544 441.823,407.399 441.818,409.655Z" style="fill:rgb(63,61,86);fill-rule:nonzero;"/>
                </g>
                <g transform="matrix(1,0,0,1,-183.389,-133.445)">
                    <path d="M444.797,410.722L444.797,494.302C444.799,495.509 445.792,496.501 446.999,496.504L571.884,496.504C573.091,496.501 574.083,495.509 574.085,494.302L574.085,410.722C574.085,409.513 573.092,408.518 571.884,408.516L446.999,408.516C445.79,408.518 444.797,409.513 444.797,410.722Z" style="fill:rgb(226,30,66);fill-rule:nonzero;"/>
                </g>
                <g transform="matrix(1,0,0,1,-183.389,-133.445)">
                    <path d="M439.161,512.074C439.633,512.665 440.349,513.008 441.105,513.004L577.097,513.004C578.469,513.002 579.596,511.873 579.596,510.501C579.596,510.329 579.578,510.157 579.543,509.988L577.432,499.961C577.254,499.131 576.667,498.445 575.874,498.143C575.591,498.032 575.29,497.975 574.986,497.975L443.208,497.975C442.904,497.975 442.602,498.032 442.32,498.143C441.527,498.445 440.939,499.131 440.761,499.961L438.65,509.988C438.498,510.724 438.686,511.491 439.161,512.074Z" style="fill:rgb(47,46,65);fill-rule:nonzero;"/>
                </g>
                <g transform="matrix(-1,7.65714e-16,-7.65714e-16,-1,960.463,868.631)">
                    <path d="M574.02,500.27C574.02,500 573.801,499.781 573.532,499.781L570.32,499.781C570.05,499.781 569.832,500 569.832,500.27L569.832,501.806C569.832,502.076 570.05,502.294 570.32,502.294L573.532,502.294C573.801,502.294 574.02,502.076 574.02,501.806L574.02,500.27Z" style="fill:rgb(63,61,86);"/>
                </g>
                <g transform="matrix(-1,7.65714e-16,-7.65714e-16,-1,943.709,868.631)">
                    <path d="M565.643,500.27C565.643,500 565.424,499.781 565.155,499.781L561.943,499.781C561.673,499.781 561.455,500 561.455,500.27L561.455,501.806C561.455,502.076 561.673,502.294 561.943,502.294L565.155,502.294C565.424,502.294 565.643,502.076 565.643,501.806L565.643,500.27Z" style="fill:rgb(63,61,86);"/>
                </g>
                <g transform="matrix(-1,7.65714e-16,-7.65714e-16,-1,926.955,868.631)">
                    <path d="M557.266,500.27C557.266,500 557.047,499.781 556.778,499.781L553.566,499.781C553.296,499.781 553.078,500 553.078,500.27L553.078,501.806C553.078,502.076 553.296,502.294 553.566,502.294L556.778,502.294C557.047,502.294 557.266,502.076 557.266,501.806L557.266,500.27Z" style="fill:rgb(63,61,86);"/>
                </g>
                <g transform="matrix(-1,7.65714e-16,-7.65714e-16,-1,910.201,868.631)">
                    <path d="M548.889,500.27C548.889,500 548.67,499.781 548.401,499.781L545.189,499.781C544.919,499.781 544.701,500 544.701,500.27L544.701,501.806C544.701,502.076 544.919,502.294 545.189,502.294L548.401,502.294C548.67,502.294 548.889,502.076 548.889,501.806L548.889,500.27Z" style="fill:rgb(63,61,86);"/>
                </g>
                <g transform="matrix(-1,7.65714e-16,-7.65714e-16,-1,893.447,868.631)">
                    <path d="M540.512,500.27C540.512,500 540.293,499.781 540.024,499.781L536.812,499.781C536.542,499.781 536.324,500 536.324,500.27L536.324,501.806C536.324,502.076 536.542,502.294 536.812,502.294L540.024,502.294C540.293,502.294 540.512,502.076 540.512,501.806L540.512,500.27Z" style="fill:rgb(63,61,86);"/>
                </g>
                <g transform="matrix(-1,7.65714e-16,-7.65714e-16,-1,876.693,868.631)">
                    <path d="M532.135,500.27C532.135,500 531.916,499.781 531.647,499.781L528.435,499.781C528.165,499.781 527.947,500 527.947,500.27L527.947,501.806C527.947,502.076 528.165,502.294 528.435,502.294L531.647,502.294C531.916,502.294 532.135,502.076 532.135,501.806L532.135,500.27Z" style="fill:rgb(63,61,86);"/>
                </g>
                <g transform="matrix(-1,7.65714e-16,-7.65714e-16,-1,859.939,868.631)">
                    <path d="M523.758,500.27C523.758,500 523.539,499.781 523.27,499.781L520.058,499.781C519.788,499.781 519.57,500 519.57,500.27L519.57,501.806C519.57,502.076 519.788,502.294 520.058,502.294L523.27,502.294C523.539,502.294 523.758,502.076 523.758,501.806L523.758,500.27Z" style="fill:rgb(63,61,86);"/>
                </g>
                <g transform="matrix(-1,7.65714e-16,-7.65714e-16,-1,843.185,868.631)">
                    <path d="M515.381,500.27C515.381,500 515.162,499.781 514.893,499.781L511.681,499.781C511.411,499.781 511.193,500 511.193,500.27L511.193,501.806C511.193,502.076 511.411,502.294 511.681,502.294L514.893,502.294C515.162,502.294 515.381,502.076 515.381,501.806L515.381,500.27Z" style="fill:rgb(63,61,86);"/>
                </g>
                <g transform="matrix(-1,7.65714e-16,-7.65714e-16,-1,826.431,868.631)">
                    <path d="M507.004,500.27C507.004,500 506.785,499.781 506.516,499.781L503.304,499.781C503.034,499.781 502.816,500 502.816,500.27L502.816,501.806C502.816,502.076 503.034,502.294 503.304,502.294L506.516,502.294C506.785,502.294 507.004,502.076 507.004,501.806L507.004,500.27Z" style="fill:rgb(63,61,86);"/>
                </g>
                <g transform="matrix(-1,7.65714e-16,-7.65714e-16,-1,809.677,868.631)">
                    <path d="M498.627,500.27C498.627,500 498.408,499.781 498.139,499.781L494.927,499.781C494.657,499.781 494.439,500 494.439,500.27L494.439,501.806C494.439,502.076 494.657,502.294 494.927,502.294L498.139,502.294C498.408,502.294 498.627,502.076 498.627,501.806L498.627,500.27Z" style="fill:rgb(63,61,86);"/>
                </g>
                <g transform="matrix(-1,7.65714e-16,-7.65714e-16,-1,792.923,868.631)">
                    <path d="M490.25,500.27C490.25,500 490.031,499.781 489.762,499.781L486.55,499.781C486.28,499.781 486.062,500 486.062,500.27L486.062,501.806C486.062,502.076 486.28,502.294 486.55,502.294L489.762,502.294C490.031,502.294 490.25,502.076 490.25,501.806L490.25,500.27Z" style="fill:rgb(63,61,86);"/>
                </g>
                <g transform="matrix(-1,7.65714e-16,-7.65714e-16,-1,776.169,868.631)">
                    <path d="M481.873,500.27C481.873,500 481.654,499.781 481.385,499.781L478.173,499.781C477.903,499.781 477.685,500 477.685,500.27L477.685,501.806C477.685,502.076 477.903,502.294 478.173,502.294L481.385,502.294C481.654,502.294 481.873,502.076 481.873,501.806L481.873,500.27Z" style="fill:rgb(63,61,86);"/>
                </g>
                <g transform="matrix(-1,7.65714e-16,-7.65714e-16,-1,759.415,868.631)">
                    <path d="M473.496,500.27C473.496,500 473.277,499.781 473.008,499.781L469.796,499.781C469.526,499.781 469.308,500 469.308,500.27L469.308,501.806C469.308,502.076 469.526,502.294 469.796,502.294L473.008,502.294C473.277,502.294 473.496,502.076 473.496,501.806L473.496,500.27Z" style="fill:rgb(63,61,86);"/>
                </g>
                <g transform="matrix(-1,7.65714e-16,-7.65714e-16,-1,742.661,868.631)">
                    <path d="M465.119,500.27C465.119,500 464.9,499.781 464.631,499.781L461.419,499.781C461.15,499.781 460.931,500 460.931,500.27L460.931,501.806C460.931,502.076 461.15,502.294 461.419,502.294L464.631,502.294C464.9,502.294 465.119,502.076 465.119,501.806L465.119,500.27Z" style="fill:rgb(63,61,86);"/>
                </g>
                <g transform="matrix(-1,7.65714e-16,-7.65714e-16,-1,725.907,868.631)">
                    <path d="M456.742,500.27C456.742,500 456.524,499.781 456.254,499.781L453.042,499.781C452.773,499.781 452.554,500 452.554,500.27L452.554,501.806C452.554,502.076 452.773,502.294 453.042,502.294L456.254,502.294C456.524,502.294 456.742,502.076 456.742,501.806L456.742,500.27Z" style="fill:rgb(63,61,86);"/>
                </g>
                <g transform="matrix(-1,7.65714e-16,-7.65714e-16,-1,709.153,868.631)">
                    <path d="M448.365,500.27C448.365,500 448.147,499.781 447.877,499.781L444.665,499.781C444.396,499.781 444.177,500 444.177,500.27L444.177,501.806C444.177,502.076 444.396,502.294 444.665,502.294L447.877,502.294C448.147,502.294 448.365,502.076 448.365,501.806L448.365,500.27Z" style="fill:rgb(63,61,86);"/>
                </g>
                <g transform="matrix(-1,7.65714e-16,-7.65714e-16,-1,960.661,877.008)">
                    <path d="M574.119,504.458C574.119,504.189 573.9,503.97 573.631,503.97L570.419,503.97C570.149,503.97 569.931,504.189 569.931,504.458L569.931,505.995C569.931,506.264 570.149,506.483 570.419,506.483L573.631,506.483C573.9,506.483 574.119,506.264 574.119,505.995L574.119,504.458Z" style="fill:rgb(63,61,86);"/>
                </g>
                <g transform="matrix(-1,7.65714e-16,-7.65714e-16,-1,943.907,877.008)">
                    <path d="M565.742,504.458C565.742,504.189 565.523,503.97 565.254,503.97L562.042,503.97C561.772,503.97 561.554,504.189 561.554,504.458L561.554,505.995C561.554,506.264 561.772,506.483 562.042,506.483L565.254,506.483C565.523,506.483 565.742,506.264 565.742,505.995L565.742,504.458Z" style="fill:rgb(63,61,86);"/>
                </g>
                <g transform="matrix(-1,7.65714e-16,-7.65714e-16,-1,927.153,877.008)">
                    <path d="M557.365,504.458C557.365,504.189 557.146,503.97 556.877,503.97L553.665,503.97C553.395,503.97 553.177,504.189 553.177,504.458L553.177,505.995C553.177,506.264 553.395,506.483 553.665,506.483L556.877,506.483C557.146,506.483 557.365,506.264 557.365,505.995L557.365,504.458Z" style="fill:rgb(63,61,86);"/>
                </g>
                <g transform="matrix(-1,7.65714e-16,-7.65714e-16,-1,910.399,877.008)">
                    <path d="M548.988,504.458C548.988,504.189 548.769,503.97 548.5,503.97L545.288,503.97C545.018,503.97 544.8,504.189 544.8,504.458L544.8,505.995C544.8,506.264 545.018,506.483 545.288,506.483L548.5,506.483C548.769,506.483 548.988,506.264 548.988,505.995L548.988,504.458Z" style="fill:rgb(63,61,86);"/>
                </g>
                <g transform="matrix(-1,7.65714e-16,-7.65714e-16,-1,893.645,877.008)">
                    <path d="M540.611,504.458C540.611,504.189 540.392,503.97 540.123,503.97L536.911,503.97C536.641,503.97 536.423,504.189 536.423,504.458L536.423,505.995C536.423,506.264 536.641,506.483 536.911,506.483L540.123,506.483C540.392,506.483 540.611,506.264 540.611,505.995L540.611,504.458Z" style="fill:rgb(63,61,86);"/>
                </g>
                <g transform="matrix(-1,7.65714e-16,-7.65714e-16,-1,876.891,877.008)">
                    <path d="M532.234,504.458C532.234,504.189 532.015,503.97 531.746,503.97L528.534,503.97C528.264,503.97 528.046,504.189 528.046,504.458L528.046,505.995C528.046,506.264 528.264,506.483 528.534,506.483L531.746,506.483C532.015,506.483 532.234,506.264 532.234,505.995L532.234,504.458Z" style="fill:rgb(63,61,86);"/>
                </g>
                <g transform="matrix(-1,7.65714e-16,-7.65714e-16,-1,860.137,877.008)">
                    <path d="M523.857,504.458C523.857,504.189 523.638,503.97 523.369,503.97L520.157,503.97C519.887,503.97 519.669,504.189 519.669,504.458L519.669,505.995C519.669,506.264 519.887,506.483 520.157,506.483L523.369,506.483C523.638,506.483 523.857,506.264 523.857,505.995L523.857,504.458Z" style="fill:rgb(63,61,86);"/>
                </g>
                <g transform="matrix(-1,7.65714e-16,-7.65714e-16,-1,843.383,877.008)">
                    <path d="M515.48,504.458C515.48,504.189 515.261,503.97 514.992,503.97L511.78,503.97C511.51,503.97 511.292,504.189 511.292,504.458L511.292,505.995C511.292,506.264 511.51,506.483 511.78,506.483L514.992,506.483C515.261,506.483 515.48,506.264 515.48,505.995L515.48,504.458Z" style="fill:rgb(63,61,86);"/>
                </g>
                <g transform="matrix(-1,7.65714e-16,-7.65714e-16,-1,826.629,877.008)">
                    <path d="M507.103,504.458C507.103,504.189 506.884,503.97 506.615,503.97L503.403,503.97C503.133,503.97 502.915,504.189 502.915,504.458L502.915,505.995C502.915,506.264 503.133,506.483 503.403,506.483L506.615,506.483C506.884,506.483 507.103,506.264 507.103,505.995L507.103,504.458Z" style="fill:rgb(63,61,86);"/>
                </g>
                <g transform="matrix(-1,7.65714e-16,-7.65714e-16,-1,809.875,877.008)">
                    <path d="M498.726,504.458C498.726,504.189 498.507,503.97 498.238,503.97L495.026,503.97C494.756,503.97 494.538,504.189 494.538,504.458L494.538,505.995C494.538,506.264 494.756,506.483 495.026,506.483L498.238,506.483C498.507,506.483 498.726,506.264 498.726,505.995L498.726,504.458Z" style="fill:rgb(63,61,86);"/>
                </g>
                <g transform="matrix(-1,7.65714e-16,-7.65714e-16,-1,793.121,877.008)">
                    <path d="M490.349,504.458C490.349,504.189 490.13,503.97 489.861,503.97L486.649,503.97C486.379,503.97 486.161,504.189 486.161,504.458L486.161,505.995C486.161,506.264 486.379,506.483 486.649,506.483L489.861,506.483C490.13,506.483 490.349,506.264 490.349,505.995L490.349,504.458Z" style="fill:rgb(63,61,86);"/>
                </g>
                <g transform="matrix(-1,7.65714e-16,-7.65714e-16,-1,776.367,877.008)">
                    <path d="M481.972,504.458C481.972,504.189 481.753,503.97 481.484,503.97L478.272,503.97C478.002,503.97 477.784,504.189 477.784,504.458L477.784,505.995C477.784,506.264 478.002,506.483 478.272,506.483L481.484,506.483C481.753,506.483 481.972,506.264 481.972,505.995L481.972,504.458Z" style="fill:rgb(63,61,86);"/>
                </g>
                <g transform="matrix(-1,7.65714e-16,-7.65714e-16,-1,759.613,877.008)">
                    <path d="M473.595,504.458C473.595,504.189 473.376,503.97 473.107,503.97L469.895,503.97C469.625,503.97 469.407,504.189 469.407,504.458L469.407,505.995C469.407,506.264 469.625,506.483 469.895,506.483L473.107,506.483C473.376,506.483 473.595,506.264 473.595,505.995L473.595,504.458Z" style="fill:rgb(63,61,86);"/>
                </g>
                <g transform="matrix(-1,7.65714e-16,-7.65714e-16,-1,742.859,877.008)">
                    <path d="M465.218,504.458C465.218,504.189 464.999,503.97 464.73,503.97L461.518,503.97C461.248,503.97 461.03,504.189 461.03,504.458L461.03,505.995C461.03,506.264 461.248,506.483 461.518,506.483L464.73,506.483C464.999,506.483 465.218,506.264 465.218,505.995L465.218,504.458Z" style="fill:rgb(63,61,86);"/>
                </g>
                <g transform="matrix(-1,7.65714e-16,-7.65714e-16,-1,726.105,877.008)">
                    <path d="M456.841,504.458C456.841,504.189 456.622,503.97 456.353,503.97L453.141,503.97C452.872,503.97 452.653,504.189 452.653,504.458L452.653,505.995C452.653,506.264 452.872,506.483 453.141,506.483L456.353,506.483C456.622,506.483 456.841,506.264 456.841,505.995L456.841,504.458Z" style="fill:rgb(63,61,86);"/>
                </g>
                <g transform="matrix(-1,7.65714e-16,-7.65714e-16,-1,709.351,877.008)">
                    <path d="M448.464,504.458C448.464,504.189 448.246,503.97 447.976,503.97L444.764,503.97C444.495,503.97 444.276,504.189 444.276,504.458L444.276,505.995C444.276,506.264 444.495,506.483 444.764,506.483L447.976,506.483C448.246,506.483 448.464,506.264 448.464,505.995L448.464,504.458Z" style="fill:rgb(63,61,86);"/>
                </g>
                <g transform="matrix(-1,7.65714e-16,-7.65714e-16,-1,850.922,887.06)">
                    <path d="M533.909,509.484C533.909,509.215 533.691,508.996 533.421,508.996L500.89,508.996C500.62,508.996 500.402,509.215 500.402,509.484L500.402,511.021C500.402,511.29 500.62,511.509 500.89,511.509L533.421,511.509C533.691,511.509 533.909,511.29 533.909,511.021L533.909,509.484Z" style="fill:rgb(63,61,86);"/>
                </g>
            </g>
        </g>
    </g>
</svg>
