<?xml version="1.0" encoding="UTF-8" standalone="no"?>
<!DOCTYPE svg PUBLIC "-//W3C//DTD SVG 1.1//EN" "http://www.w3.org/Graphics/SVG/1.1/DTD/svg11.dtd">
<svg width="100%" height="100%" viewBox="0 0 1136 908" version="1.1" xmlns="http://www.w3.org/2000/svg" xmlns:xlink="http://www.w3.org/1999/xlink" xml:space="preserve" xmlns:serif="http://www.serif.com/" style="fill-rule:evenodd;clip-rule:evenodd;stroke-linejoin:round;stroke-miterlimit:2;">
    <g transform="matrix(1.25266,0,0,1.25266,568,454)">
        <g transform="matrix(1,0,0,1,-392.583,-253.877)">
            <clipPath id="_clip1">
                <rect x="0" y="0" width="785.166" height="507.754"/>
            </clipPath>
            <g clip-path="url(#_clip1)">
                <g transform="matrix(1,0,0,1,-207.417,-196.123)">
                    <path d="M755.423,538.554C674.649,538.558 604.37,478.302 593.988,396.117L595.972,395.866C606.226,477.037 675.649,536.549 755.424,536.554C762.202,536.554 768.974,536.127 775.698,535.275C863.684,524.16 926.222,443.536 915.107,355.55L917.091,355.299C928.345,444.378 865.028,526.006 775.949,537.259C769.141,538.12 762.285,538.553 755.423,538.554Z" style="fill:rgb(63,61,86);fill-rule:nonzero;"/>
                </g>
                <g transform="matrix(1,0,0,1,-207.417,-196.123)">
                    <path d="M819.834,276.761C817.435,270.42 816.206,263.697 816.206,256.917C816.206,226.149 841.524,200.831 872.292,200.831C895.56,200.831 916.518,215.311 924.751,237.074L922.879,237.782C914.941,216.795 894.73,202.832 872.292,202.832C842.622,202.832 818.207,227.247 818.207,256.917C818.207,263.455 819.392,269.938 821.705,276.053L819.834,276.761Z" style="fill:rgb(63,61,86);fill-rule:nonzero;"/>
                </g>
                <g transform="matrix(1,0,0,1,-207.417,-196.123)">
                    <path d="M982.306,374.653L880.641,374.653C875.006,374.646 870.371,370.011 870.364,364.376L870.364,229.76C870.371,224.125 875.006,219.489 880.641,219.483L982.306,219.483C987.942,219.489 992.577,224.125 992.583,229.76L992.583,364.376C992.577,370.011 987.941,374.646 982.306,374.653Z" style="fill:rgb(230,230,230);fill-rule:nonzero;"/>
                </g>
                <g transform="matrix(1,0,0,1,-207.417,-196.123)">
                    <path d="M941.913,366.587L887.788,366.587C882.51,366.581 878.169,362.241 878.163,356.963L878.163,237.173C878.169,231.895 882.51,227.554 887.788,227.548L975.16,227.548C980.438,227.554 984.779,231.895 984.785,237.173L984.785,323.716C984.758,347.225 965.422,366.561 941.913,366.587Z" style="fill:white;fill-rule:nonzero;"/>
                </g>
                <g transform="matrix(1,0,0,1,-207.417,-196.123)">
                    <path d="M966.444,287.621L896.503,287.621C895.252,287.621 894.222,286.591 894.222,285.34C894.222,284.089 895.252,283.059 896.503,283.059L966.444,283.059C967.695,283.059 968.725,284.089 968.725,285.34C968.725,286.591 967.695,287.621 966.444,287.621Z" style="fill:rgb(228,228,228);fill-rule:nonzero;"/>
                </g>
                <g transform="matrix(1,0,0,1,-207.417,-196.123)">
                    <path d="M966.444,296.634L896.503,296.634C895.254,296.632 894.227,295.603 894.227,294.353C894.227,293.104 895.254,292.075 896.503,292.072L966.444,292.072C967.695,292.072 968.725,293.102 968.725,294.353C968.725,295.605 967.695,296.634 966.444,296.634Z" style="fill:rgb(228,228,228);fill-rule:nonzero;"/>
                </g>
                <g transform="matrix(1,0,0,1,-207.417,-196.123)">
                    <path d="M926.821,305.648L896.503,305.648C895.252,305.648 894.222,304.618 894.222,303.366C894.222,302.115 895.252,301.085 896.503,301.085L926.821,301.085C928.072,301.085 929.102,302.115 929.102,303.366C929.102,304.618 928.072,305.648 926.821,305.648Z" style="fill:rgb(228,228,228);fill-rule:nonzero;"/>
                </g>
                <g transform="matrix(1,0,0,1,-207.417,-196.123)">
                    <path d="M966.444,250.813L896.503,250.813C895.252,250.813 894.222,249.783 894.222,248.532C894.222,247.281 895.252,246.251 896.503,246.251L966.444,246.251C967.695,246.251 968.725,247.281 968.725,248.532C968.725,249.783 967.695,250.813 966.444,250.813Z" style="fill:rgb(228,228,228);fill-rule:nonzero;"/>
                </g>
                <g transform="matrix(1,0,0,1,-207.417,-196.123)">
                    <path d="M966.444,259.826L896.503,259.826C895.252,259.826 894.222,258.797 894.222,257.545C894.222,256.294 895.252,255.264 896.503,255.264L966.444,255.264C967.695,255.264 968.725,256.294 968.725,257.545C968.725,258.797 967.695,259.826 966.444,259.826L966.444,259.826Z" style="fill:rgb(228,228,228);fill-rule:nonzero;"/>
                </g>
                <g transform="matrix(1,0,0,1,-207.417,-196.123)">
                    <path d="M926.821,268.84L896.503,268.84C895.254,268.837 894.227,267.808 894.227,266.559C894.227,265.309 895.254,264.28 896.503,264.278L926.821,264.278C928.071,264.28 929.097,265.309 929.097,266.559C929.097,267.808 928.071,268.837 926.821,268.84Z" style="fill:rgb(228,228,228);fill-rule:nonzero;"/>
                </g>
                <g transform="matrix(1,0,0,1,-207.417,-196.123)">
                    <path d="M966.444,325.717L896.503,325.717C895.252,325.717 894.222,324.687 894.222,323.436C894.222,322.185 895.252,321.155 896.503,321.155L966.444,321.155C967.695,321.155 968.725,322.185 968.725,323.436C968.725,324.687 967.695,325.717 966.444,325.717Z" style="fill:rgb(226,30,66);fill-rule:nonzero;"/>
                </g>
                <g transform="matrix(1,0,0,1,-207.417,-196.123)">
                    <path d="M907.444,334.73L896.503,334.73C895.254,334.728 894.227,333.699 894.227,332.449C894.227,331.2 895.254,330.171 896.503,330.168L907.444,330.168C908.695,330.168 909.725,331.198 909.725,332.449C909.725,333.701 908.695,334.73 907.444,334.73Z" style="fill:rgb(226,30,66);fill-rule:nonzero;"/>
                </g>
                <g transform="matrix(1,0,0,1,-207.417,-196.123)">
                    <path d="M926.821,343.744L896.503,343.744C895.252,343.744 894.222,342.714 894.222,341.463C894.222,340.211 895.252,339.181 896.503,339.181L926.821,339.181C928.072,339.181 929.102,340.211 929.102,341.463C929.102,342.714 928.072,343.744 926.821,343.744Z" style="fill:rgb(226,30,66);fill-rule:nonzero;"/>
                </g>
                <g transform="matrix(1,0,0,1,-207.417,-196.123)">
                    <path d="M595.504,370.14C591.493,359.521 589.437,348.263 589.437,336.912C589.437,285.328 631.885,242.881 683.469,242.881C722.462,242.881 757.588,267.137 771.402,303.602L769.531,304.31C756.031,268.583 721.633,244.809 683.441,244.809C632.955,244.809 591.41,286.353 591.41,336.84C591.41,347.975 593.431,359.018 597.375,369.432L595.504,370.14Z" style="fill:rgb(63,61,86);fill-rule:nonzero;"/>
                </g>
                <circle cx="562.907" cy="11.141" r="9.546" style="fill:rgb(230,230,230);"/>
                <circle cx="575.907" cy="286.141" r="9.546" style="fill:rgb(230,230,230);"/>
                <circle cx="330.907" cy="59.141" r="9.546" style="fill:rgb(230,230,230);"/>
                <g transform="matrix(1,0,0,1,-207.417,-196.123)">
                    <path d="M670.117,647.511L451.584,647.511C439.471,647.497 429.508,637.534 429.494,625.421L429.494,336.058C429.508,323.945 439.471,313.981 451.584,313.968L670.117,313.968C682.23,313.981 692.194,323.945 692.208,336.058L692.208,625.421C692.194,637.534 682.23,647.497 670.117,647.511Z" style="fill:rgb(230,230,230);fill-rule:nonzero;"/>
                </g>
                <g transform="matrix(1,0,0,1,-207.417,-196.123)">
                    <path d="M586.709,629.6L466.945,629.6C455.916,629.587 446.844,620.515 446.832,609.486L446.832,351.993C446.844,340.963 455.916,331.891 466.945,331.879L654.756,331.879C665.785,331.891 674.857,340.963 674.87,351.993L674.87,541.44C674.815,589.782 635.052,629.545 586.709,629.6Z" style="fill:white;fill-rule:nonzero;"/>
                </g>
                <g transform="matrix(1,0,0,1,-207.417,-196.123)">
                    <path d="M636.021,381.313L485.681,381.313C485.678,381.313 485.676,381.313 485.674,381.313C482.984,381.313 480.771,379.099 480.771,376.41C480.771,373.72 482.984,371.507 485.674,371.507C485.676,371.507 485.678,371.507 485.681,371.507L636.021,371.507C636.023,371.507 636.025,371.507 636.028,371.507C638.717,371.507 640.931,373.72 640.931,376.41C640.931,379.099 638.717,381.313 636.028,381.313C636.025,381.313 636.023,381.313 636.021,381.313Z" style="fill:rgb(226,30,66);fill-rule:nonzero;"/>
                </g>
                <g transform="matrix(1,0,0,1,-207.417,-196.123)">
                    <path d="M636.021,400.687L485.681,400.687C482.991,400.687 480.777,398.474 480.777,395.784C480.777,393.094 482.991,390.881 485.681,390.881L636.021,390.881C638.71,390.881 640.924,393.094 640.924,395.784C640.924,398.474 638.71,400.687 636.021,400.687Z" style="fill:rgb(226,30,66);fill-rule:nonzero;"/>
                </g>
                <g transform="matrix(1,0,0,1,-207.417,-196.123)">
                    <path d="M550.849,420.062L485.681,420.062C482.991,420.062 480.777,417.848 480.777,415.159C480.777,412.469 482.991,410.255 485.681,410.255L550.849,410.255C553.539,410.255 555.753,412.469 555.753,415.159C555.753,417.848 553.539,420.062 550.849,420.062Z" style="fill:rgb(226,30,66);fill-rule:nonzero;"/>
                </g>
                <g transform="matrix(1,0,0,1,-207.417,-196.123)">
                    <path d="M636.021,460.639L485.681,460.639C485.678,460.639 485.676,460.639 485.674,460.639C482.984,460.639 480.771,458.426 480.771,455.736C480.771,453.046 482.984,450.833 485.674,450.833C485.676,450.833 485.678,450.833 485.681,450.833L636.021,450.833C636.023,450.833 636.025,450.833 636.028,450.833C638.717,450.833 640.931,453.046 640.931,455.736C640.931,458.426 638.717,460.639 636.028,460.639C636.025,460.639 636.023,460.639 636.021,460.639Z" style="fill:rgb(228,228,228);fill-rule:nonzero;"/>
                </g>
                <g transform="matrix(1,0,0,1,-207.417,-196.123)">
                    <path d="M636.021,480.014L485.681,480.014C482.991,480.014 480.777,477.8 480.777,475.11C480.777,472.421 482.991,470.207 485.681,470.207L636.021,470.207C638.71,470.207 640.924,472.421 640.924,475.11C640.924,477.8 638.71,480.014 636.021,480.014Z" style="fill:rgb(228,228,228);fill-rule:nonzero;"/>
                </g>
                <g transform="matrix(1,0,0,1,-207.417,-196.123)">
                    <path d="M550.849,499.388L485.681,499.388C482.991,499.388 480.777,497.175 480.777,494.485C480.777,491.795 482.991,489.582 485.681,489.582L550.849,489.582C553.539,489.582 555.753,491.795 555.753,494.485C555.753,497.175 553.539,499.388 550.849,499.388Z" style="fill:rgb(228,228,228);fill-rule:nonzero;"/>
                </g>
                <g transform="matrix(1,0,0,1,-207.417,-196.123)">
                    <path d="M636.021,539.966L485.681,539.966C485.678,539.966 485.676,539.966 485.674,539.966C482.984,539.966 480.771,537.752 480.771,535.063C480.771,532.373 482.984,530.16 485.674,530.16C485.676,530.16 485.678,530.16 485.681,530.16L636.021,530.16C636.023,530.16 636.025,530.16 636.028,530.16C638.717,530.16 640.931,532.373 640.931,535.063C640.931,537.752 638.717,539.966 636.028,539.966C636.025,539.966 636.023,539.966 636.021,539.966Z" style="fill:rgb(228,228,228);fill-rule:nonzero;"/>
                </g>
                <g transform="matrix(1,0,0,1,-207.417,-196.123)">
                    <path d="M636.021,559.34L485.681,559.34C482.991,559.34 480.777,557.127 480.777,554.437C480.777,551.747 482.991,549.534 485.681,549.534L636.021,549.534C638.71,549.534 640.924,551.747 640.924,554.437C640.924,557.127 638.71,559.34 636.021,559.34Z" style="fill:rgb(228,228,228);fill-rule:nonzero;"/>
                </g>
                <g transform="matrix(1,0,0,1,-207.417,-196.123)">
                    <path d="M550.849,578.715L485.681,578.715C482.994,578.711 480.784,576.499 480.784,573.811C480.784,571.124 482.994,568.912 485.681,568.908L550.849,568.908C553.537,568.912 555.746,571.124 555.746,573.811C555.746,576.499 553.537,578.711 550.849,578.715Z" style="fill:rgb(228,228,228);fill-rule:nonzero;"/>
                </g>
                <g transform="matrix(1,0,0,1,-207.417,-196.123)">
                    <path d="M838.493,432.653L727.823,432.653C721.689,432.646 716.643,427.6 716.636,421.466L716.636,274.926C716.643,268.792 721.689,263.746 727.823,263.739L838.493,263.739C844.627,263.746 849.673,268.792 849.68,274.926L849.68,421.466C849.673,427.6 844.627,432.646 838.493,432.653Z" style="fill:rgb(230,230,230);fill-rule:nonzero;"/>
                </g>
                <g transform="matrix(1,0,0,1,-207.417,-196.123)">
                    <path d="M797.467,423.829L735.602,423.829C729.881,423.822 725.176,419.117 725.169,413.396L725.169,282.996C725.176,277.275 729.881,272.57 735.602,272.563L830.713,272.563C836.434,272.569 841.14,277.275 841.146,282.996L841.146,380.149C841.119,404.101 821.418,423.802 797.467,423.829Z" style="fill:white;fill-rule:nonzero;"/>
                </g>
                <g transform="matrix(1,0,0,1,-207.417,-196.123)">
                    <path d="M821.225,297.844L745.09,297.844C743.728,297.844 742.607,296.723 742.607,295.361C742.607,293.999 743.728,292.878 745.09,292.878L821.225,292.878C822.588,292.878 823.708,293.999 823.708,295.361C823.708,296.723 822.588,297.844 821.225,297.844Z" style="fill:rgb(228,228,228);fill-rule:nonzero;"/>
                </g>
                <g transform="matrix(1,0,0,1,-207.417,-196.123)">
                    <path d="M821.225,307.656L745.09,307.656C743.73,307.653 742.612,306.533 742.612,305.173C742.612,303.813 743.73,302.692 745.09,302.69L821.225,302.69C822.586,302.692 823.704,303.813 823.704,305.173C823.704,306.533 822.586,307.653 821.225,307.656Z" style="fill:rgb(228,228,228);fill-rule:nonzero;"/>
                </g>
                <g transform="matrix(1,0,0,1,-207.417,-196.123)">
                    <path d="M778.093,317.468L745.09,317.468C743.73,317.465 742.612,316.345 742.612,314.984C742.612,313.624 743.73,312.504 745.09,312.501L778.093,312.501C779.453,312.504 780.571,313.624 780.571,314.984C780.571,316.345 779.453,317.465 778.093,317.468Z" style="fill:rgb(228,228,228);fill-rule:nonzero;"/>
                </g>
                <g transform="matrix(1,0,0,1,-207.417,-196.123)">
                    <path d="M821.225,338.017L745.09,338.017C743.728,338.017 742.607,336.896 742.607,335.534C742.607,334.172 743.728,333.051 745.09,333.051L821.225,333.051C822.588,333.051 823.708,334.172 823.708,335.534C823.708,336.896 822.588,338.017 821.225,338.017Z" style="fill:rgb(226,30,66);fill-rule:nonzero;"/>
                </g>
                <g transform="matrix(1,0,0,1,-207.417,-196.123)">
                    <path d="M801.225,347.829L745.09,347.829C743.728,347.829 742.607,346.708 742.607,345.345C742.607,343.983 743.728,342.862 745.09,342.862L801.225,342.862C802.588,342.862 803.709,343.983 803.709,345.345C803.709,346.708 802.588,347.829 801.225,347.829Z" style="fill:rgb(226,30,66);fill-rule:nonzero;"/>
                </g>
                <g transform="matrix(1,0,0,1,-207.417,-196.123)">
                    <path d="M778.093,357.64L745.09,357.64C743.73,357.638 742.612,356.517 742.612,355.157C742.612,353.797 743.73,352.677 745.09,352.674L778.093,352.674C779.453,352.677 780.571,353.797 780.571,355.157C780.571,356.517 779.453,357.638 778.093,357.64Z" style="fill:rgb(226,30,66);fill-rule:nonzero;"/>
                </g>
                <g transform="matrix(1,0,0,1,-207.417,-196.123)">
                    <path d="M821.225,378.19L745.09,378.19C743.728,378.19 742.607,377.069 742.607,375.707C742.607,374.344 743.728,373.224 745.09,373.224L821.225,373.224C822.588,373.224 823.708,374.344 823.708,375.707C823.708,377.069 822.588,378.19 821.225,378.19Z" style="fill:rgb(228,228,228);fill-rule:nonzero;"/>
                </g>
                <g transform="matrix(1,0,0,1,-207.417,-196.123)">
                    <path d="M821.225,388.001L745.09,388.001C743.728,388.001 742.607,386.88 742.607,385.518C742.607,384.156 743.728,383.035 745.09,383.035L821.225,383.035C822.588,383.035 823.709,384.156 823.709,385.518C823.709,386.88 822.588,388.001 821.225,388.001Z" style="fill:rgb(228,228,228);fill-rule:nonzero;"/>
                </g>
                <g transform="matrix(1,0,0,1,-207.417,-196.123)">
                    <path d="M778.093,397.813L745.09,397.813C743.73,397.81 742.612,396.69 742.612,395.33C742.612,393.969 743.73,392.849 745.09,392.847L778.093,392.847C779.453,392.849 780.571,393.969 780.571,395.33C780.571,396.69 779.453,397.81 778.093,397.813Z" style="fill:rgb(228,228,228);fill-rule:nonzero;"/>
                </g>
                <g transform="matrix(1,0,0,1,-207.417,-196.123)">
                    <path d="M336.812,482.998C338.265,481.418 339.072,479.348 339.072,477.202C339.072,474.276 337.573,471.545 335.104,469.974L342.125,440.353L327.266,445.782L322.877,473.078C322.184,474.345 321.821,475.767 321.821,477.211C321.821,481.936 325.709,485.824 330.434,485.824C332.862,485.824 335.181,484.797 336.812,482.998L336.812,482.998Z" style="fill:rgb(255,184,184);fill-rule:nonzero;"/>
                </g>
                <g transform="matrix(1,0,0,1,-207.417,-196.123)">
                    <path d="M372.544,358.871L366.58,374.205C366.58,374.205 369.136,389.538 364.877,392.946C360.617,396.353 362.321,396.353 362.321,398.909C362.025,402.614 360.165,406.024 357.21,408.279C353.802,410.835 338.469,462.799 338.469,462.799L323.135,462.799C323.63,458.839 323.63,454.833 323.135,450.873C322.283,444.91 325.691,429.576 327.394,427.021C329.098,424.465 327.394,421.058 327.394,415.946C327.394,410.835 330.802,408.279 330.802,399.761C330.802,391.242 341.024,324.796 340.172,317.129C339.321,309.462 348.691,302.647 348.691,302.647L357.21,302.647L372.544,358.871Z" style="fill:rgb(226,30,66);fill-rule:nonzero;"/>
                </g>
                <path d="M201.206,195.271L215.379,258.521L124.556,252.871L149.253,190.754L201.206,195.271Z" style="fill:rgb(255,184,184);fill-rule:nonzero;"/>
                <g transform="matrix(1,0,0,1,-207.417,-196.123)">
                    <path d="M210.652,629.117C213.355,638.892 217.577,648.182 223.162,656.647C235.642,675.517 253.502,689.947 273.132,701.497C274.492,702.307 275.872,703.097 277.252,703.877L291.022,703.877L291.502,702.777L291.502,702.767L292.062,701.497L292.132,701.347L292.162,701.497L292.712,703.877L299.472,703.877C300.032,703.087 300.582,702.297 301.122,701.497C301.912,700.327 302.672,699.147 303.392,697.947C304.662,695.848 305.798,693.671 306.791,691.427C306.912,691.177 307.012,690.927 307.112,690.677L306.662,690.187L308.531,682.007L304.772,681.387L308.892,668.677C308.742,668.207 308.571,667.737 308.392,667.267C306.081,661.417 301.742,657.047 296.592,653.377C291.292,649.587 285.122,646.547 279.452,643.387C276.791,641.897 274.172,640.327 271.622,638.667L271.622,638.657C268.362,636.547 265.198,634.29 262.132,631.887C262.079,631.854 262.029,631.817 261.982,631.777C261.939,631.747 261.899,631.713 261.862,631.677C248.114,620.937 236.479,607.736 227.552,592.747C227.551,592.747 227.551,592.747 227.551,592.747C227.546,592.747 227.542,592.743 227.542,592.737C227.542,592.737 227.542,592.737 227.542,592.737C227.242,592.257 226.962,591.777 226.682,591.287L226.682,591.277C223.025,584.989 219.879,578.418 217.272,571.627L217.272,571.617C217.072,571.117 216.892,570.617 216.702,570.117C216.442,570.557 216.192,570.997 215.952,571.437C215.952,571.437 215.952,571.437 215.951,571.437C215.946,571.437 215.942,571.442 215.942,571.447C215.942,571.447 215.942,571.447 215.942,571.447C206.242,588.797 205.322,609.697 210.652,629.117Z" style="fill:rgb(240,240,240);fill-rule:nonzero;"/>
                </g>
                <g transform="matrix(1,0,0,1,-207.417,-196.123)">
                    <path d="M215.942,571.447C215.845,580.706 216.807,589.947 218.812,598.987C219.712,603.124 220.834,607.21 222.172,611.227C224.769,619.086 228.163,626.659 232.302,633.827C232.532,634.217 232.752,634.597 232.992,634.977L232.992,634.987C234.76,637.969 236.68,640.86 238.742,643.647C241.862,648.088 245.718,651.963 250.142,655.107C253.755,657.495 257.842,659.074 262.122,659.737C262.922,659.887 263.742,659.997 264.572,660.097C267.882,660.487 271.302,660.637 274.582,661.337C276.243,661.665 277.861,662.185 279.402,662.887C284.682,665.337 287.652,670.467 288.952,675.947C289.182,676.907 289.362,677.877 289.502,678.847C290.592,686.297 289.392,694.037 290.012,701.497C290.082,702.287 290.172,703.087 290.282,703.877L291.022,703.877L291.502,702.777L291.502,702.767C291.452,702.347 291.412,701.927 291.372,701.497C291.132,697.832 291.102,694.156 291.282,690.487C291.322,688.837 291.352,687.177 291.332,685.517C291.312,684.187 291.262,682.857 291.162,681.537L291.162,681.527C291.092,680.707 291.012,679.897 290.902,679.087C290.584,676.607 289.973,674.173 289.082,671.837C287.323,666.971 283.565,663.082 278.762,661.157C277.31,660.613 275.815,660.195 274.292,659.907C270.942,659.267 267.482,659.107 264.112,658.687C263.752,658.647 263.392,658.597 263.042,658.537C262.592,658.467 262.152,658.387 261.712,658.307C257.303,657.524 253.137,655.719 249.552,653.037C245.29,649.663 241.585,645.641 238.572,641.117C236.932,638.767 235.372,636.367 233.922,633.897C233.922,633.897 233.922,633.897 233.922,633.897C233.922,633.891 233.917,633.887 233.912,633.887C233.912,633.887 233.912,633.887 233.912,633.887C233.842,633.767 233.772,633.657 233.702,633.537L233.692,633.517C227.472,622.888 222.932,611.362 220.232,599.347C220.142,598.907 220.042,598.467 219.942,598.027C218.086,589.352 217.19,580.498 217.272,571.627L217.272,571.617C217.272,571.197 217.282,570.787 217.292,570.367C217.312,569.507 215.982,569.317 215.962,570.177C215.952,570.597 215.942,571.017 215.952,571.437C215.952,571.437 215.952,571.437 215.952,571.437C215.946,571.437 215.942,571.441 215.942,571.447C215.942,571.447 215.942,571.447 215.942,571.447Z" style="fill:white;fill-rule:nonzero;"/>
                </g>
                <g transform="matrix(1,0,0,1,-207.417,-196.123)">
                    <path d="M233.563,634.706C225.726,638.687 216.063,636.381 210.868,629.29C210.36,628.591 211.422,627.767 211.932,628.468C216.758,635.081 225.775,637.213 233.052,633.462C233.822,633.067 234.327,634.313 233.563,634.706Z" style="fill:white;fill-rule:nonzero;"/>
                </g>
                <g transform="matrix(1,0,0,1,-207.417,-196.123)">
                    <path d="M261.583,658.705C264.367,650.427 263.928,641.396 260.354,633.426C259.999,632.637 261.243,632.128 261.597,632.916C265.301,641.216 265.739,650.616 262.823,659.224C262.545,660.045 261.306,659.522 261.583,658.705L261.583,658.705Z" style="fill:white;fill-rule:nonzero;"/>
                </g>
                <g transform="matrix(1,0,0,1,-207.417,-196.123)">
                    <path d="M219.555,598.15C222.864,597.254 225.507,594.747 226.578,591.491C226.846,590.667 228.084,591.191 227.818,592.009C226.619,595.6 223.71,598.37 220.065,599.393C219.724,599.521 219.338,599.359 219.189,599.027C219.051,598.685 219.216,598.291 219.555,598.15L219.555,598.15Z" style="fill:white;fill-rule:nonzero;"/>
                </g>
                <g transform="matrix(1,0,0,1,-207.417,-196.123)">
                    <path d="M271.622,638.657L271.622,638.667C271.932,645.808 272.825,652.912 274.292,659.907L274.292,659.917C274.372,660.397 274.482,660.867 274.582,661.337C276.995,672.156 280.379,682.736 284.692,692.947C285.882,695.827 287.128,698.677 288.432,701.497C288.792,702.297 289.162,703.087 289.542,703.877L291.022,703.877L291.502,702.777L291.502,702.767L292.062,701.497L292.132,701.347L292.162,701.497L292.712,703.877L307.012,703.877L309.792,701.497L313.842,698.027L308.182,691.847L307.252,690.827L307.112,690.677L306.662,690.187L308.531,682.007L304.772,681.387L308.892,668.677L310.842,662.667L311.332,661.157L314.182,652.367L322.782,653.977L324.182,649.077C321.604,643.102 319.458,636.95 317.762,630.667C317.752,630.617 317.732,630.577 317.722,630.527C313.178,613.605 311.815,595.986 313.702,578.567L313.702,578.557C313.762,577.997 313.832,577.427 313.912,576.877L313.912,576.857C314.769,569.638 316.214,562.501 318.232,555.517C318.372,554.987 318.532,554.467 318.682,553.947C318.222,554.147 317.772,554.337 317.312,554.537L317.302,554.547L317.282,554.547C316.552,554.867 315.822,555.207 315.112,555.567C298.052,563.857 285.502,579.417 278.372,597.357C278.352,597.407 278.332,597.447 278.312,597.497C274.591,606.902 272.374,616.833 271.742,626.927C271.502,630.833 271.462,634.748 271.622,638.657Z" style="fill:rgb(240,240,240);fill-rule:nonzero;"/>
                </g>
                <g transform="matrix(1,0,0,1,-207.417,-196.123)">
                    <path d="M297.572,703.877L299.152,703.877C299.652,703.067 300.192,702.277 300.732,701.497C301.592,700.287 302.478,699.104 303.392,697.947C304.182,696.947 304.972,695.957 305.762,694.967C306.582,693.937 307.392,692.907 308.182,691.847L307.252,690.827C307.102,691.027 306.952,691.227 306.792,691.427C304.232,694.797 301.462,698.037 299.092,701.497C298.562,702.277 298.052,703.067 297.572,703.877Z" style="fill:white;fill-rule:nonzero;"/>
                </g>
                <g transform="matrix(1,0,0,1,-207.417,-196.123)">
                    <path d="M319.014,554.506C318.754,554.836 318.484,555.176 318.234,555.516C316.284,558.046 314.44,560.656 312.704,563.346C309.611,568.092 306.864,573.055 304.484,578.196C304.294,578.596 304.104,579.006 303.924,579.416C298.831,590.649 295.511,602.605 294.084,614.856C294.064,614.976 294.054,615.086 294.044,615.206C293.714,618.066 293.5,620.936 293.404,623.816C293.085,629.239 293.621,634.679 294.994,639.936C295.194,640.626 295.414,641.306 295.654,641.966C296.255,643.583 297.009,645.14 297.904,646.616C298.547,647.693 299.262,648.725 300.044,649.706C300.514,650.306 301.004,650.896 301.524,651.466C301.824,651.796 302.134,652.126 302.444,652.456C302.704,652.706 302.954,652.966 303.214,653.216C305.914,655.836 308.894,658.266 311.334,661.156L310.844,662.666C308.494,659.686 305.464,657.216 302.734,654.616C301.02,653.004 299.46,651.237 298.074,649.336C297.894,649.076 297.704,648.816 297.534,648.546C296.607,647.192 295.807,645.756 295.144,644.256C294.804,643.506 294.494,642.736 294.214,641.936C292.58,636.766 291.836,631.355 292.014,625.936C292.046,622.464 292.253,618.997 292.634,615.546C292.674,615.096 292.724,614.656 292.784,614.206C293.798,605.992 295.647,597.904 298.304,590.066C301.666,580.122 306.29,570.652 312.064,561.886C313.714,559.376 315.464,556.926 317.314,554.536C317.554,554.206 317.804,553.886 318.064,553.556C318.594,552.876 319.544,553.826 319.014,554.506Z" style="fill:white;fill-rule:nonzero;"/>
                </g>
                <g transform="matrix(1,0,0,1,-207.417,-196.123)">
                    <path d="M293.26,615.672C284.606,614.132 278.279,606.473 278.4,597.685C278.409,597.321 278.709,597.027 279.073,597.027C279.43,597.027 279.728,597.312 279.744,597.668C279.616,605.854 285.532,612.986 293.601,614.372C294.453,614.52 294.107,615.819 293.26,615.672L293.26,615.672Z" style="fill:white;fill-rule:nonzero;"/>
                </g>
                <g transform="matrix(1,0,0,1,-207.417,-196.123)">
                    <path d="M301.183,651.705C308.39,646.771 313.477,639.295 315.421,630.781C315.613,629.937 316.913,630.279 316.721,631.122C314.681,639.979 309.372,647.748 301.861,652.866C301.145,653.353 300.471,652.19 301.183,651.705L301.183,651.705Z" style="fill:white;fill-rule:nonzero;"/>
                </g>
                <g transform="matrix(1,0,0,1,-207.417,-196.123)">
                    <path d="M304.085,578.051C307.266,579.327 310.886,578.917 313.701,576.962C314.411,576.465 315.084,577.629 314.379,578.122C311.26,580.268 307.27,580.729 303.744,579.351C303.394,579.247 303.183,578.885 303.264,578.53C303.36,578.175 303.729,577.959 304.085,578.051Z" style="fill:white;fill-rule:nonzero;"/>
                </g>
                <path d="M186.082,487.193L196.284,487.192L201.138,447.841L186.08,447.841L186.082,487.193Z" style="fill:rgb(255,184,184);fill-rule:nonzero;"/>
                <g transform="matrix(1,0,0,1,-207.417,-196.123)">
                    <path d="M390.044,678.283L406.172,677.32L406.172,684.23L421.505,694.819C422.671,695.624 423.368,696.954 423.368,698.371C423.368,700.739 421.42,702.687 419.052,702.687C419.052,702.687 419.052,702.687 419.052,702.687L399.852,702.687L396.542,695.852L395.25,702.687L388.011,702.687L390.044,678.283Z" style="fill:rgb(47,46,65);fill-rule:nonzero;"/>
                </g>
                <path d="M89.657,482.117L99.628,484.279L112.713,446.851L97.998,443.66L89.657,482.117Z" style="fill:rgb(255,184,184);fill-rule:nonzero;"/>
                <g transform="matrix(1,0,0,1,-207.417,-196.123)">
                    <path d="M294.765,672.589L310.73,675.067L309.265,681.82L322.004,695.419C322.754,696.219 323.171,697.275 323.171,698.37C323.171,700.738 321.223,702.687 318.855,702.687C318.547,702.687 318.24,702.654 317.94,702.588L299.176,698.518L297.39,691.137L294.678,697.542L287.604,696.008L294.765,672.589Z" style="fill:rgb(47,46,65);fill-rule:nonzero;"/>
                </g>
                <g transform="matrix(1,0,0,1,-207.417,-196.123)">
                    <path d="M225.222,702.687C225.222,702.688 225.222,702.689 225.222,702.691C225.222,703.342 225.757,703.877 226.408,703.877C226.409,703.877 226.41,703.877 226.412,703.877L506.702,703.877C507.355,703.877 507.892,703.34 507.892,702.687C507.892,702.034 507.355,701.497 506.702,701.497L226.412,701.497C226.411,701.497 226.409,701.497 226.408,701.497C225.757,701.497 225.222,702.033 225.222,702.684C225.222,702.685 225.222,702.686 225.222,702.687Z" style="fill:rgb(204,204,204);fill-rule:nonzero;"/>
                </g>
                <g transform="matrix(1,0,0,1,-207.417,-196.123)">
                    <path d="M425.115,507.534C417.955,546.884 416.165,563.874 416.165,563.874C416.165,563.874 421.535,570.134 417.955,573.714C414.375,577.294 417.955,584.444 417.955,584.444L408.583,659.283L406.583,670.283L387.815,667.634L390.583,657.283L385.765,585.344C385.765,585.344 382.185,578.184 383.975,576.394C385.765,574.604 382.185,563.874 382.185,563.874L377.715,478.914L349.985,571.924C349.985,571.924 352.675,575.504 349.985,578.184C347.305,580.864 341.945,594.284 341.945,594.284L321.583,648.283L317.583,656.283L315.455,655.274L306.095,653.514L304.375,653.194L301.315,652.614L299.345,652.244L298.675,652.124L295.435,651.514L296.415,647.164L303.583,636.283L310.875,582.914L311.195,581.484L311.535,579.974C311.535,579.974 309.745,575.504 312.425,572.814C314.015,571.151 314.685,568.806 314.215,566.554C314.127,566.461 314.047,566.36 313.975,566.254C313.658,565.82 313.44,565.321 313.335,564.794C313.095,563.674 313.305,562.104 315.115,560.294C315.624,559.753 316.052,559.139 316.385,558.474C319.105,553.324 320.475,542.414 320.475,542.414C320.475,542.414 322.895,456.004 330.815,442.804C331.235,442.114 339.642,428.868 340.082,428.598C349.022,423.238 418.796,429.641 418.796,429.641C418.796,429.641 423.015,440.974 423.205,442.154C424.235,448.784 431.185,474.154 425.115,507.534Z" style="fill:rgb(47,46,65);fill-rule:nonzero;"/>
                </g>
                <g transform="matrix(1,0,0,1,-207.417,-196.123)">
                    <path d="M497.519,315.422C496.981,319.683 493.316,322.914 489.021,322.914C488.156,322.914 487.296,322.783 486.471,322.526L468.383,347.011L462.935,332.159L480.947,311.185C482.226,307.871 485.43,305.674 488.982,305.674C493.706,305.674 497.594,309.562 497.594,314.287C497.594,314.666 497.569,315.045 497.519,315.422L497.519,315.422Z" style="fill:rgb(255,184,184);fill-rule:nonzero;"/>
                </g>
                <g transform="matrix(1,0,0,1,-207.417,-196.123)">
                    <path d="M332.477,419.137C330.819,419.137 329.877,418.812 329.512,418.115C328.977,417.091 329.906,415.754 330.981,414.205C331.779,413.194 332.408,412.061 332.844,410.849C333.487,408.277 337.828,343.302 335.231,330.32C334.631,327.316 335.148,323.465 336.768,318.875C341.192,306.34 347.231,302.488 359.262,294.814C360.238,294.191 361.255,293.54 362.313,292.862C363.68,291.983 363.604,289.069 363.523,285.983C363.434,282.553 363.341,279.006 365.021,276.789L365.131,276.645L365.307,276.604C369.371,275.664 383.04,273.92 391.134,276.617L391.246,276.655L391.33,276.738C393.252,278.661 393.428,282.385 393.597,285.987C393.736,288.944 393.867,291.736 394.955,292.949C403.272,302.219 412.705,302.038 412.8,302.037L413.268,302.023L413.314,302.488C416.932,339.286 422.764,394.826 424.003,397.011C424.135,397.215 424.143,397.476 424.023,397.687C422.204,401.086 338.727,419.137 332.477,419.137Z" style="fill:rgb(226,30,66);fill-rule:nonzero;"/>
                </g>
                <circle cx="179.384" cy="45.397" r="24.667" style="fill:rgb(255,184,184);"/>
                <g transform="matrix(1,0,0,1,-207.417,-196.123)">
                    <path d="M403.282,286.611C402.112,284.941 396.182,264.544 393.583,258.283C393.317,259.628 390.337,264.845 390.267,266.233L390.242,266.748L389.731,266.814C388.963,266.912 370.82,269.114 361.378,258.408C355.784,252.066 354.516,242.554 357.603,230.13C357.041,230.02 356.503,229.813 356.013,229.518C354.361,228.375 353.296,226.559 353.103,224.559L352.58,224.7C349.918,225.418 346.915,226.368 344.976,228.562C342.816,231.002 342.432,234.316 342.024,237.826C341.865,239.501 341.601,241.165 341.233,242.807C339.917,248.114 336.214,253.084 330.225,257.581C324.197,262.109 318.05,264.699 311.955,265.278C304.757,265.965 297.815,263.6 293.392,258.957C288.459,253.78 287.169,245.816 290.323,240.02L290.831,239.086L291.388,239.991C294.196,244.548 300.331,247.009 306.31,245.975C311.436,245.088 316.517,241.833 320.618,236.81C324.362,232.225 326.944,226.81 329.442,221.572C331.982,216.247 334.608,210.741 338.391,206.068C342.658,200.798 347.983,197.356 353.386,196.375C357.32,195.664 360.831,196.47 363.019,198.591C364.565,200.185 365.481,202.286 365.597,204.503C366.942,204.202 368.346,204.283 369.648,204.736C372.204,205.775 373.989,208.142 374.287,210.885C382.215,206.715 392.706,207.394 398.132,210.522C400.404,211.832 401.709,213.482 401.94,215.323C408.349,215.681 415.242,221.924 415.242,230.769L415.242,231.385L414.627,231.385C409.554,231.385 404.923,234.302 402.239,239.188C399.032,244.98 399.247,252.086 402.796,257.675C406.63,263.56 407.928,270.752 406.393,277.606L404.078,287.748L403.282,286.611Z" style="fill:rgb(47,46,65);fill-rule:nonzero;"/>
                </g>
                <g transform="matrix(1,0,0,1,-207.417,-196.123)">
                    <path d="M431.598,378.865L415.338,369.718C386.983,350.065 379.999,334.457 379.126,324.821C378.194,314.538 383.672,308.914 383.906,308.681L384.033,308.588L398.69,301.099C400.768,300.037 403.069,299.484 405.402,299.484C411.591,299.484 417.151,303.378 419.266,309.195L432.824,346.483L447.856,335.396L454.267,332.87L459.439,325.953L473.646,317.666L484.201,327.165L470.928,353.71L463.554,355.588L461.99,359.617L461.851,359.705L431.598,378.865Z" style="fill:rgb(226,30,66);fill-rule:nonzero;"/>
                </g>
            </g>
        </g>
    </g>
</svg>
