<?xml version="1.0" encoding="UTF-8" standalone="no"?><!-- Generator: Gravit.io --><svg xmlns="http://www.w3.org/2000/svg" xmlns:xlink="http://www.w3.org/1999/xlink" style="isolation:isolate" viewBox="0 0 1024 1024" width="1024pt" height="1024pt"><defs><clipPath id="_clipPath_VtG1Sixnz4ksX4mQpDBdxsdVrmIyBVPk"><rect width="1024" height="1024"/></clipPath></defs><g clip-path="url(#_clipPath_VtG1Sixnz4ksX4mQpDBdxsdVrmIyBVPk)"><path d=" M 35.596 1003.246 L 35.596 19.305 L 425.118 19.305 L 425.118 1003.246 L 35.596 1003.246 Z  M 545.305 460.233 L 545.305 287.192 L 545.305 287.192 Q 545.305 127.184 626.395 72.159 L 626.395 72.159 L 626.395 72.159 Q 703.141 20.754 915.278 20.754 L 915.278 20.754 L 988.404 20.754 L 988.404 157.593 L 988.404 157.593 Q 988.404 321.221 905.142 390.727 L 905.142 390.727 L 905.142 390.727 Q 820.432 460.233 613.363 460.233 L 613.363 460.233 L 545.305 460.233 Z  M 545.305 716.535 L 545.305 535.531 L 613.363 535.531 L 613.363 535.531 Q 817.536 535.531 905.142 616.621 L 905.142 616.621 L 905.142 616.621 Q 988.404 694.091 988.404 861.339 L 988.404 861.339 L 988.404 1004.695 L 915.278 1004.695 L 915.278 1004.695 Q 707.485 1004.695 626.395 942.429 L 626.395 942.429 L 626.395 942.429 Q 545.305 879.439 545.305 716.535 L 545.305 716.535 Z " fill="rgb(0,102,140)"/><path d=" M 545 460 L 545 286.96 L 545 286.96 Q 545 126.952 626.09 71.926 L 626.09 71.926 L 626.09 71.926 Q 702.836 20.521 914.973 20.521 L 914.973 20.521 L 988.099 20.521 L 988.099 157.36 L 988.099 157.36 Q 988.099 320.988 904.837 390.494 L 904.837 390.494 L 904.837 390.494 Q 820.127 460 613.058 460 L 613.058 460 L 545 460 Z " fill="rgb(215,46,99)"/></g></svg>